<?xml version="1.0" encoding="UTF-8" standalone="no"?>
<!-- Generator: Adobe Illustrator 9.0, SVG Export Plug-In  -->
<svg
   xmlns:dc="http://purl.org/dc/elements/1.1/"
   xmlns:cc="http://web.resource.org/cc/"
   xmlns:rdf="http://www.w3.org/1999/02/22-rdf-syntax-ns#"
   xmlns:svg="http://www.w3.org/2000/svg"
   xmlns="http://www.w3.org/2000/svg"
   xmlns:xlink="http://www.w3.org/1999/xlink"
   xmlns:sodipodi="http://sodipodi.sourceforge.net/DTD/sodipodi-0.dtd"
   xmlns:inkscape="http://www.inkscape.org/namespaces/inkscape"
   width="1115.1312"
   height="1119.6462"
   viewBox="0 0 508.104 383.717"
   xml:space="preserve"
   id="svg2"
   sodipodi:version="0.32"
   inkscape:version="0.45.1"
   sodipodi:docname="gnometris.svg"
   inkscape:output_extension="org.inkscape.output.svg.inkscape"
   sodipodi:docbase="/home/andreas/gnome/gnome-games/gnometris"
   version="1.0"><metadata
   id="metadata36"><rdf:RDF><cc:Work
       rdf:about=""><dc:format>image/svg+xml</dc:format><dc:type
         rdf:resource="http://purl.org/dc/dcmitype/StillImage" /></cc:Work></rdf:RDF></metadata><defs
   id="defs34"><linearGradient
     id="linearGradient3155"><stop
       style="stop-color:#000000;stop-opacity:1;"
       offset="0"
       id="stop3157" /><stop
       style="stop-color:#1c4e90;stop-opacity:1;"
       offset="1"
       id="stop3159" /></linearGradient><linearGradient
     inkscape:collect="always"
     xlink:href="#linearGradient3155"
     id="linearGradient3171"
     x1="-7.9334722"
     y1="190.01971"
     x2="509.6929"
     y2="190.01971"
     gradientUnits="userSpaceOnUse"
     spreadMethod="reflect"
     gradientTransform="matrix(0.9790685,0,0,0.9746526,-437.11799,69.54963)" /><linearGradient
     inkscape:collect="always"
     xlink:href="#linearGradient3155"
     id="linearGradient3179"
     x1="-0.0026445899"
     y1="59.130001"
     x2="96.212547"
     y2="59.130001"
     gradientUnits="userSpaceOnUse" /></defs><sodipodi:namedview
   inkscape:window-height="906"
   inkscape:window-width="1172"
   inkscape:pageshadow="2"
   inkscape:pageopacity="0.0"
   guidetolerance="10.0"
   gridtolerance="10.0"
   objecttolerance="10.0"
   borderopacity="1.0"
   bordercolor="#666666"
   pagecolor="#ffffff"
   id="base"
   width="635.13px"
   height="479.64627px"
   inkscape:zoom="0.69348949"
   inkscape:cx="710.31577"
   inkscape:cy="850.95922"
   inkscape:window-x="6"
   inkscape:window-y="49"
   inkscape:current-layer="svg2" />
	
<rect
   style="fill:url(#linearGradient3171);fill-opacity:1;fill-rule:evenodd;stroke:#000022;stroke-width:6.67653704;stroke-linecap:butt;stroke-linejoin:miter;stroke-miterlimit:4;stroke-dasharray:none;stroke-opacity:1"
   id="rect2182"
   width="505.79898"
   height="502.61081"
   x="-444.38663"
   y="3.4479351"
   transform="matrix(2.4677774e-4,-1,1,2.4902099e-4,0,0)" /><g
   transform="matrix(4.2945274,0,0,3.9349025,53.412783,-35.338125)"
   style="fill:url(#linearGradient3179);fill-opacity:1.0;fill-rule:nonzero;stroke:none;stroke-miterlimit:4;opacity:0.5"
   id="g15043"><g
     style="fill:url(#linearGradient3179);fill-opacity:1.0;fill-rule:nonzero"
     id="g15045"><path
       d="M 86.068,0 C 61.466,0 56.851,35.041 70.691,35.041 C 84.529,35.041 110.671,0 86.068,0 z "
       style="fill:url(#linearGradient3179);fill-opacity:1.0;fill-rule:nonzero"
       id="path15047" /><path
       d="M 45.217,30.699 C 52.586,31.149 60.671,2.577 46.821,4.374 C 32.976,6.171 37.845,30.249 45.217,30.699 z "
       style="fill:url(#linearGradient3179);fill-opacity:1.0;fill-rule:nonzero"
       id="path15049" /><path
       d="M 11.445,48.453 C 16.686,46.146 12.12,23.581 3.208,29.735 C -5.7,35.89 6.204,50.759 11.445,48.453 z "
       style="fill:url(#linearGradient3179);fill-opacity:1.0;fill-rule:nonzero"
       id="path15051" /><path
       d="M 26.212,36.642 C 32.451,35.37 32.793,9.778 21.667,14.369 C 10.539,18.961 19.978,37.916 26.212,36.642 L 26.212,36.642 z "
       style="fill:url(#linearGradient3179);fill-opacity:1.0;fill-rule:nonzero"
       id="path15053" /><path
       d="M 58.791,93.913 C 59.898,102.367 52.589,106.542 45.431,101.092 C 22.644,83.743 83.16,75.088 79.171,51.386 C 75.86,31.712 15.495,37.769 8.621,68.553 C 3.968,89.374 27.774,118.26 52.614,118.26 C 64.834,118.26 78.929,107.226 81.566,93.248 C 83.58,82.589 57.867,86.86 58.791,93.913 L 58.791,93.913 z "
       style="fill:url(#linearGradient3179);fill-opacity:1.0;fill-rule:nonzero"
       id="path15055" /></g></g></svg>