<?xml version="1.0" encoding="UTF-8"?>
<svg height="128px" viewBox="0 0 128 128" width="128px" xmlns="http://www.w3.org/2000/svg" xmlns:xlink="http://www.w3.org/1999/xlink">
    <linearGradient id="a" gradientUnits="userSpaceOnUse">
        <stop offset="0" stop-color="#26a269"/>
        <stop offset="0.0625" stop-color="#2ec27e"/>
        <stop offset="0.125" stop-color="#26a269"/>
        <stop offset="0.875" stop-color="#26a269"/>
        <stop offset="0.9375" stop-color="#2ec27e"/>
        <stop offset="1" stop-color="#26a269"/>
    </linearGradient>
    <linearGradient id="b" x1="16" x2="48" xlink:href="#a" y1="34" y2="34"/>
    <linearGradient id="c" gradientUnits="userSpaceOnUse">
        <stop offset="0" stop-color="#26a269"/>
        <stop offset="0.0416667" stop-color="#2ec27e"/>
        <stop offset="0.0833333" stop-color="#26a269"/>
        <stop offset="0.916667" stop-color="#26a269"/>
        <stop offset="0.958333" stop-color="#2ec27e"/>
        <stop offset="1" stop-color="#26a269"/>
    </linearGradient>
    <linearGradient id="d" x1="20" x2="44" xlink:href="#c" y1="32" y2="32"/>
    <linearGradient id="e" gradientUnits="userSpaceOnUse">
        <stop offset="0" stop-color="#8ff0a4"/>
        <stop offset="1" stop-color="#57e389"/>
    </linearGradient>
    <radialGradient id="f" cx="32" cy="45" r="30" xlink:href="#e"/>
    <linearGradient id="g" x1="48" x2="80" xlink:href="#a" y1="34" y2="34"/>
    <linearGradient id="h" x1="52" x2="76" xlink:href="#c" y1="32" y2="32"/>
    <radialGradient id="i" cx="64" cy="45" r="30" xlink:href="#e"/>
    <linearGradient id="j" x1="80" x2="112" xlink:href="#a" y1="34" y2="34"/>
    <linearGradient id="k" x1="84" x2="108" xlink:href="#c" y1="32" y2="32"/>
    <radialGradient id="l" cx="96" cy="45" r="30" xlink:href="#e"/>
    <linearGradient id="m" x1="80" x2="112" xlink:href="#a" y1="66" y2="66"/>
    <linearGradient id="n" x1="84" x2="108" xlink:href="#c" y1="64" y2="64"/>
    <radialGradient id="o" cx="96" cy="77" r="30" xlink:href="#e"/>
    <linearGradient id="p" gradientUnits="userSpaceOnUse">
        <stop offset="0" stop-color="#613583"/>
        <stop offset="0.0625" stop-color="#813d9c"/>
        <stop offset="0.125" stop-color="#613583"/>
        <stop offset="0.875" stop-color="#613583"/>
        <stop offset="0.9375" stop-color="#813d9c"/>
        <stop offset="1" stop-color="#613583"/>
    </linearGradient>
    <linearGradient id="q" x1="48" x2="80" xlink:href="#p" y1="66" y2="66"/>
    <linearGradient id="r" gradientUnits="userSpaceOnUse">
        <stop offset="0" stop-color="#613583"/>
        <stop offset="0.0416667" stop-color="#813d9c"/>
        <stop offset="0.0833333" stop-color="#613583"/>
        <stop offset="0.916667" stop-color="#613583"/>
        <stop offset="0.958333" stop-color="#813d9c"/>
        <stop offset="1" stop-color="#613583"/>
    </linearGradient>
    <linearGradient id="s" x1="52" x2="76" xlink:href="#r" y1="64" y2="64"/>
    <linearGradient id="t" gradientUnits="userSpaceOnUse">
        <stop offset="0" stop-color="#dc8add"/>
        <stop offset="1" stop-color="#c061cb"/>
    </linearGradient>
    <radialGradient id="u" cx="64" cy="77" r="30" xlink:href="#t"/>
    <linearGradient id="v" x1="48" x2="80" xlink:href="#p" y1="98" y2="98"/>
    <linearGradient id="w" x1="52" x2="76" xlink:href="#r" y1="96" y2="96"/>
    <radialGradient id="x" cx="64" cy="109" r="30" xlink:href="#t"/>
    <linearGradient id="y" x1="79" x2="111" xlink:href="#p" y1="98" y2="98"/>
    <linearGradient id="z" x1="83" x2="107" xlink:href="#r" y1="96" y2="96"/>
    <radialGradient id="A" cx="95" cy="109" r="30" xlink:href="#t"/>
    <linearGradient id="B" x1="16" x2="48" xlink:href="#p" y1="98" y2="98"/>
    <linearGradient id="C" x1="20" x2="44" xlink:href="#r" y1="96" y2="96"/>
    <radialGradient id="D" cx="32" cy="109" r="30" xlink:href="#t"/>
    <path d="m 20 16 h 24 c 2.210938 0 4 1.789062 4 4 v 28 c 0 2.210938 -1.789062 4 -4 4 h -24 c -2.210938 0 -4 -1.789062 -4 -4 v -28 c 0 -2.210938 1.789062 -4 4 -4 z m 0 0" fill="url(#b)"/>
    <path d="m 22 20 h 20 c 1.105469 0 2 0.894531 2 2 v 20 c 0 1.105469 -0.894531 2 -2 2 h -20 c -1.105469 0 -2 -0.894531 -2 -2 v -20 c 0 -1.105469 0.894531 -2 2 -2 z m 0 0" fill="url(#d)"/>
    <path d="m 22 21 h 20 c 1.105469 0 2 0.894531 2 2 v 20 c 0 1.105469 -0.894531 2 -2 2 h -20 c -1.105469 0 -2 -0.894531 -2 -2 v -20 c 0 -1.105469 0.894531 -2 2 -2 z m 0 0" fill="url(#f)"/>
    <path d="m 20 16 c -2.214844 0 -4 1.785156 -4 4 v 24 c 0 2.214844 1.785156 4 4 4 h 24 c 2.214844 0 4 -1.785156 4 -4 v -24 c 0 -2.214844 -1.785156 -4 -4 -4 z m 2 4 h 20 c 1.109375 0 2 0.890625 2 2 v 20 c 0 1.109375 -0.890625 2 -2 2 h -20 c -1.109375 0 -2 -0.890625 -2 -2 v -20 c 0 -1.109375 0.890625 -2 2 -2 z m 0 0" fill="#33d17a"/>
    <path d="m 52 16 h 24 c 2.210938 0 4 1.789062 4 4 v 28 c 0 2.210938 -1.789062 4 -4 4 h -24 c -2.210938 0 -4 -1.789062 -4 -4 v -28 c 0 -2.210938 1.789062 -4 4 -4 z m 0 0" fill="url(#g)"/>
    <path d="m 54 20 h 20 c 1.105469 0 2 0.894531 2 2 v 20 c 0 1.105469 -0.894531 2 -2 2 h -20 c -1.105469 0 -2 -0.894531 -2 -2 v -20 c 0 -1.105469 0.894531 -2 2 -2 z m 0 0" fill="url(#h)"/>
    <path d="m 54 21 h 20 c 1.105469 0 2 0.894531 2 2 v 20 c 0 1.105469 -0.894531 2 -2 2 h -20 c -1.105469 0 -2 -0.894531 -2 -2 v -20 c 0 -1.105469 0.894531 -2 2 -2 z m 0 0" fill="url(#i)"/>
    <path d="m 52 16 c -2.214844 0 -4 1.785156 -4 4 v 24 c 0 2.214844 1.785156 4 4 4 h 24 c 2.214844 0 4 -1.785156 4 -4 v -24 c 0 -2.214844 -1.785156 -4 -4 -4 z m 2 4 h 20 c 1.109375 0 2 0.890625 2 2 v 20 c 0 1.109375 -0.890625 2 -2 2 h -20 c -1.109375 0 -2 -0.890625 -2 -2 v -20 c 0 -1.109375 0.890625 -2 2 -2 z m 0 0" fill="#33d17a"/>
    <path d="m 84 16 h 24 c 2.210938 0 4 1.789062 4 4 v 28 c 0 2.210938 -1.789062 4 -4 4 h -24 c -2.210938 0 -4 -1.789062 -4 -4 v -28 c 0 -2.210938 1.789062 -4 4 -4 z m 0 0" fill="url(#j)"/>
    <path d="m 86 20 h 20 c 1.105469 0 2 0.894531 2 2 v 20 c 0 1.105469 -0.894531 2 -2 2 h -20 c -1.105469 0 -2 -0.894531 -2 -2 v -20 c 0 -1.105469 0.894531 -2 2 -2 z m 0 0" fill="url(#k)"/>
    <path d="m 86 21 h 20 c 1.105469 0 2 0.894531 2 2 v 20 c 0 1.105469 -0.894531 2 -2 2 h -20 c -1.105469 0 -2 -0.894531 -2 -2 v -20 c 0 -1.105469 0.894531 -2 2 -2 z m 0 0" fill="url(#l)"/>
    <path d="m 84 16 c -2.214844 0 -4 1.785156 -4 4 v 24 c 0 2.214844 1.785156 4 4 4 h 24 c 2.214844 0 4 -1.785156 4 -4 v -24 c 0 -2.214844 -1.785156 -4 -4 -4 z m 2 4 h 20 c 1.109375 0 2 0.890625 2 2 v 20 c 0 1.109375 -0.890625 2 -2 2 h -20 c -1.109375 0 -2 -0.890625 -2 -2 v -20 c 0 -1.109375 0.890625 -2 2 -2 z m 0 0" fill="#33d17a"/>
    <path d="m 84 48 h 24 c 2.210938 0 4 1.789062 4 4 v 28 c 0 2.210938 -1.789062 4 -4 4 h -24 c -2.210938 0 -4 -1.789062 -4 -4 v -28 c 0 -2.210938 1.789062 -4 4 -4 z m 0 0" fill="url(#m)"/>
    <path d="m 86 52 h 20 c 1.105469 0 2 0.894531 2 2 v 20 c 0 1.105469 -0.894531 2 -2 2 h -20 c -1.105469 0 -2 -0.894531 -2 -2 v -20 c 0 -1.105469 0.894531 -2 2 -2 z m 0 0" fill="url(#n)"/>
    <path d="m 86 53 h 20 c 1.105469 0 2 0.894531 2 2 v 20 c 0 1.105469 -0.894531 2 -2 2 h -20 c -1.105469 0 -2 -0.894531 -2 -2 v -20 c 0 -1.105469 0.894531 -2 2 -2 z m 0 0" fill="url(#o)"/>
    <path d="m 84 48 c -2.214844 0 -4 1.785156 -4 4 v 24 c 0 2.214844 1.785156 4 4 4 h 24 c 2.214844 0 4 -1.785156 4 -4 v -24 c 0 -2.214844 -1.785156 -4 -4 -4 z m 2 4 h 20 c 1.109375 0 2 0.890625 2 2 v 20 c 0 1.109375 -0.890625 2 -2 2 h -20 c -1.109375 0 -2 -0.890625 -2 -2 v -20 c 0 -1.109375 0.890625 -2 2 -2 z m 0 0" fill="#33d17a"/>
    <path d="m 52 48 h 24 c 2.210938 0 4 1.789062 4 4 v 28 c 0 2.210938 -1.789062 4 -4 4 h -24 c -2.210938 0 -4 -1.789062 -4 -4 v -28 c 0 -2.210938 1.789062 -4 4 -4 z m 0 0" fill="url(#q)"/>
    <path d="m 54 52 h 20 c 1.105469 0 2 0.894531 2 2 v 20 c 0 1.105469 -0.894531 2 -2 2 h -20 c -1.105469 0 -2 -0.894531 -2 -2 v -20 c 0 -1.105469 0.894531 -2 2 -2 z m 0 0" fill="url(#s)"/>
    <path d="m 54 53 h 20 c 1.105469 0 2 0.894531 2 2 v 20 c 0 1.105469 -0.894531 2 -2 2 h -20 c -1.105469 0 -2 -0.894531 -2 -2 v -20 c 0 -1.105469 0.894531 -2 2 -2 z m 0 0" fill="url(#u)"/>
    <path d="m 52 48 c -2.214844 0 -4 1.785156 -4 4 v 24 c 0 2.214844 1.785156 4 4 4 h 24 c 2.214844 0 4 -1.785156 4 -4 v -24 c 0 -2.214844 -1.785156 -4 -4 -4 z m 2 4 h 20 c 1.109375 0 2 0.890625 2 2 v 20 c 0 1.109375 -0.890625 2 -2 2 h -20 c -1.109375 0 -2 -0.890625 -2 -2 v -20 c 0 -1.109375 0.890625 -2 2 -2 z m 0 0" fill="#9141ac"/>
    <path d="m 52 80 h 24 c 2.210938 0 4 1.789062 4 4 v 28 c 0 2.210938 -1.789062 4 -4 4 h -24 c -2.210938 0 -4 -1.789062 -4 -4 v -28 c 0 -2.210938 1.789062 -4 4 -4 z m 0 0" fill="url(#v)"/>
    <path d="m 54 84 h 20 c 1.105469 0 2 0.894531 2 2 v 20 c 0 1.105469 -0.894531 2 -2 2 h -20 c -1.105469 0 -2 -0.894531 -2 -2 v -20 c 0 -1.105469 0.894531 -2 2 -2 z m 0 0" fill="url(#w)"/>
    <path d="m 54 85 h 20 c 1.105469 0 2 0.894531 2 2 v 20 c 0 1.105469 -0.894531 2 -2 2 h -20 c -1.105469 0 -2 -0.894531 -2 -2 v -20 c 0 -1.105469 0.894531 -2 2 -2 z m 0 0" fill="url(#x)"/>
    <path d="m 52 80 c -2.214844 0 -4 1.785156 -4 4 v 24 c 0 2.214844 1.785156 4 4 4 h 24 c 2.214844 0 4 -1.785156 4 -4 v -24 c 0 -2.214844 -1.785156 -4 -4 -4 z m 2 4 h 20 c 1.109375 0 2 0.890625 2 2 v 20 c 0 1.109375 -0.890625 2 -2 2 h -20 c -1.109375 0 -2 -0.890625 -2 -2 v -20 c 0 -1.109375 0.890625 -2 2 -2 z m 0 0" fill="#9141ac"/>
    <path d="m 83 80 h 24 c 2.210938 0 4 1.789062 4 4 v 28 c 0 2.210938 -1.789062 4 -4 4 h -24 c -2.210938 0 -4 -1.789062 -4 -4 v -28 c 0 -2.210938 1.789062 -4 4 -4 z m 0 0" fill="url(#y)"/>
    <path d="m 85 84 h 20 c 1.105469 0 2 0.894531 2 2 v 20 c 0 1.105469 -0.894531 2 -2 2 h -20 c -1.105469 0 -2 -0.894531 -2 -2 v -20 c 0 -1.105469 0.894531 -2 2 -2 z m 0 0" fill="url(#z)"/>
    <path d="m 85 85 h 20 c 1.105469 0 2 0.894531 2 2 v 20 c 0 1.105469 -0.894531 2 -2 2 h -20 c -1.105469 0 -2 -0.894531 -2 -2 v -20 c 0 -1.105469 0.894531 -2 2 -2 z m 0 0" fill="url(#A)"/>
    <path d="m 83 80 c -2.214844 0 -4 1.785156 -4 4 v 24 c 0 2.214844 1.785156 4 4 4 h 24 c 2.214844 0 4 -1.785156 4 -4 v -24 c 0 -2.214844 -1.785156 -4 -4 -4 z m 2 4 h 20 c 1.109375 0 2 0.890625 2 2 v 20 c 0 1.109375 -0.890625 2 -2 2 h -20 c -1.109375 0 -2 -0.890625 -2 -2 v -20 c 0 -1.109375 0.890625 -2 2 -2 z m 0 0" fill="#9141ac"/>
    <path d="m 20 80 h 24 c 2.210938 0 4 1.789062 4 4 v 28 c 0 2.210938 -1.789062 4 -4 4 h -24 c -2.210938 0 -4 -1.789062 -4 -4 v -28 c 0 -2.210938 1.789062 -4 4 -4 z m 0 0" fill="url(#B)"/>
    <path d="m 22 84 h 20 c 1.105469 0 2 0.894531 2 2 v 20 c 0 1.105469 -0.894531 2 -2 2 h -20 c -1.105469 0 -2 -0.894531 -2 -2 v -20 c 0 -1.105469 0.894531 -2 2 -2 z m 0 0" fill="url(#C)"/>
    <path d="m 22 85 h 20 c 1.105469 0 2 0.894531 2 2 v 20 c 0 1.105469 -0.894531 2 -2 2 h -20 c -1.105469 0 -2 -0.894531 -2 -2 v -20 c 0 -1.105469 0.894531 -2 2 -2 z m 0 0" fill="url(#D)"/>
    <path d="m 20 80 c -2.214844 0 -4 1.785156 -4 4 v 24 c 0 2.214844 1.785156 4 4 4 h 24 c 2.214844 0 4 -1.785156 4 -4 v -24 c 0 -2.214844 -1.785156 -4 -4 -4 z m 2 4 h 20 c 1.109375 0 2 0.890625 2 2 v 20 c 0 1.109375 -0.890625 2 -2 2 h -20 c -1.109375 0 -2 -0.890625 -2 -2 v -20 c 0 -1.109375 0.890625 -2 2 -2 z m 0 0" fill="#9141ac"/>
</svg>
